<svg xmlns="http://www.w3.org/2000/svg" width="150" height="150"><path fill="#333" fill-rule="evenodd" d="M122.5 92.5a11.25 11.25 0 0 0-16.875-9.743A11.25 11.25 0 0 0 100 92.5H53.75a11.25 11.25 0 0 0-16.875-9.743A11.25 11.25 0 0 0 31.25 92.5H15a5 5 0 0 1-5-5V73.55a7.5 7.5 0 0 1 .288-2.06l5.104-17.864A5 5 0 0 1 20.2 50h113.55a1.25 1.25 0 0 1 1.25 1.25v2.5a1.25 1.25 0 0 1-.997 1.224 1.25 1.25 0 0 0-.925 1.645l6.485 18.158a7.5 7.5 0 0 1 .437 2.522V90a2.5 2.5 0 0 1-2.5 2.5h-15zm11.09-20h-14.965a1.875 1.875 0 0 1-1.875-1.875v-13.75A1.875 1.875 0 0 1 118.625 55h10.054a1.875 1.875 0 0 1 1.765 1.244l4.911 13.75a1.875 1.875 0 0 1-1.766 2.506zm-21.965 0h-13.14a1.875 1.875 0 0 1-1.802-2.39l3.928-13.75a1.875 1.875 0 0 1 1.803-1.36h9.211a1.875 1.875 0 0 1 1.875 1.875v13.75a1.875 1.875 0 0 1-1.875 1.875zm-20.29 0h-12.6a1.875 1.875 0 0 1-1.802-2.39l3.928-13.75A1.875 1.875 0 0 1 82.664 55h12.6a1.875 1.875 0 0 1 1.803 2.39l-3.929 13.75a1.875 1.875 0 0 1-1.802 1.36zm-19.75 0h-12.6a1.875 1.875 0 0 1-1.802-2.39l3.928-13.75A1.875 1.875 0 0 1 62.914 55h12.6a1.875 1.875 0 0 1 1.803 2.39l-3.929 13.75a1.875 1.875 0 0 1-1.802 1.36zm-19.75 0h-12.6a1.875 1.875 0 0 1-1.802-2.39l3.928-13.75A1.875 1.875 0 0 1 43.164 55h12.6a1.875 1.875 0 0 1 1.803 2.39l-3.929 13.75a1.875 1.875 0 0 1-1.802 1.36zm-19.75 0h-12.6a1.875 1.875 0 0 1-1.802-2.39l3.928-13.75A1.875 1.875 0 0 1 23.414 55h12.6a1.875 1.875 0 0 1 1.803 2.39l-3.929 13.75a1.875 1.875 0 0 1-1.803 1.36zm1.665 20a8.75 8.75 0 0 1 13.125-7.578 8.75 8.75 0 0 1 0 15.156A8.75 8.75 0 0 1 33.75 92.5m68.75 0a8.75 8.75 0 0 1 13.125-7.578 8.75 8.75 0 0 1 0 15.156A8.75 8.75 0 0 1 102.5 92.5z"/></svg>