<svg xmlns="http://www.w3.org/2000/svg" xmlns:xlink="http://www.w3.org/1999/xlink" width="1200" height="1200"><svg fill="#FFF" xmlns="http://www.w3.org/2000/svg" viewBox="0 0 512 512" transform="matrix(.69 0 0 .69 186 186)"><path d="M241.007 294.154c0-48.641-39.572-88.213-88.214-88.213-48.641 0-88.212 39.572-88.212 88.213 0 14.254 3.401 27.727 9.431 39.654l78.781 162.464 78.795-162.489c6.021-11.922 9.419-25.386 9.419-39.629zm-88.214 48.817c-26.917 0-48.817-21.9-48.817-48.817s21.9-48.817 48.817-48.817c26.918 0 48.817 21.9 48.817 48.817s-21.899 48.817-48.817 48.817zM402.75 15.728c-24.63 0-44.669 20.038-44.669 44.668 0 7.218 1.723 14.04 4.776 20.081l39.893 82.267 39.899-82.28a44.392 44.392 0 0 0 4.77-20.067c0-24.631-20.04-44.669-44.669-44.669zm0 69.388c-13.631 0-24.72-11.089-24.72-24.72 0-13.63 11.089-24.72 24.72-24.72 13.629 0 24.719 11.09 24.719 24.72 0 13.631-11.09 24.72-24.719 24.72zm-38.905 220.399c-1.813-8.524-4.166-16.875-7.131-25.075-3.974-10.988-8.74-21.724-12.391-32.836-6.823-20.771 4.948-38.105 7.16-41.256 3.876-5.517 8.409-10.58 13.191-15.322 9.207-9.128 19.361-17.288 29.984-24.803a149.072 149.072 0 0 1-3.805-6.199c-15.279 5.99-93.853 33.452-91.937 94.121.384 12.162 5.083 23.738 7.979 35.527 1.395 5.68 2.606 11.411 3.345 17.217.32 2.615.515 5.244.73 7.871.006-.02.004-.035-.008-.046.007.077.202 8.327-.164 11.901-1.148 11.189-2.799 22.494-7.516 32.757-4.386 9.544-11.005 17.843-19.193 24.403-18.716 14.994-43.514 20.988-66.913 23.399-1.114.116-2.228.216-3.342.313l-41.779 86.154c20.614-1.283 41.175-4.103 61.235-9.039 23.607-5.811 46.613-14.589 67.226-27.598 20.596-12.997 38.308-30.578 50.099-51.984 12.335-22.392 17.278-48.039 16.225-73.453-.36-8.682-1.184-17.533-2.995-26.052z"/></svg></svg>