<?xml version="1.0" standalone="no"?>
<!DOCTYPE svg PUBLIC "-//W3C//DTD SVG 20010904//EN"
 "http://www.w3.org/TR/2001/REC-SVG-20010904/DTD/svg10.dtd">
<svg version="1.0" xmlns="http://www.w3.org/2000/svg"
 width="700.000000pt" height="700.000000pt" viewBox="0 0 700.000000 700.000000"
 preserveAspectRatio="xMidYMid meet">
<metadata>
Created by potrace 1.11, written by Peter Selinger 2001-2013
</metadata>
<g transform="translate(0.000000,700.000000) scale(0.100000,-0.100000)"
fill="#000000" stroke="none">
<path d="M4835 5763 c-157 -21 -297 -136 -350 -288 -25 -72 -23 -205 3 -270
18 -45 123 -263 325 -678 l73 -148 48 101 c26 56 102 213 168 348 66 136 133
274 149 307 110 227 41 461 -171 581 -60 35 -174 56 -245 47z m162 -217 c161
-88 155 -322 -9 -407 -49 -25 -99 -31 -161 -17 -41 8 -61 21 -102 62 -56 56
-79 116 -71 188 8 82 77 165 159 194 50 18 130 9 184 -20z"/>
<path d="M4755 4402 c-6 -4 -37 -19 -70 -32 -92 -36 -271 -127 -350 -177 -255
-165 -401 -367 -424 -587 -12 -109 -7 -142 58 -388 16 -64 34 -138 38 -165 14
-94 9 -264 -11 -358 -27 -126 -38 -156 -94 -245 -36 -57 -111 -137 -172 -181
-71 -53 -264 -138 -346 -153 -16 -3 -42 -8 -59 -11 -16 -3 -52 -10 -80 -15
-41 -8 -94 -15 -138 -19 -4 -1 -21 -29 -36 -63 -16 -35 -86 -180 -156 -323
-70 -143 -141 -289 -158 -325 -54 -113 -59 -102 41 -95 48 4 94 8 102 10 9 2
43 6 75 10 33 4 69 9 80 11 11 3 36 7 55 10 19 3 90 19 158 35 835 203 1294
714 1275 1419 -2 74 -5 144 -7 155 -2 11 -6 43 -10 70 -13 82 -61 241 -130
426 -86 230 -92 265 -72 378 26 142 170 320 403 496 l81 61 -20 32 c-23 36
-21 35 -33 24z"/>
<path d="M2400 3963 c-332 -59 -598 -301 -679 -618 -23 -92 -33 -249 -19 -315
4 -19 9 -46 11 -60 15 -82 38 -138 170 -410 307 -634 422 -871 553 -1139 l91
-186 83 170 c45 94 111 229 145 300 34 72 115 238 180 370 64 132 130 267 145
300 15 33 54 114 87 180 88 179 151 319 158 351 14 69 17 81 24 116 5 20 7 85
6 145 -7 253 -125 481 -328 634 -148 112 -313 167 -497 167 -58 0 -116 -2
-130 -5z m281 -392 c279 -106 389 -432 230 -678 -90 -139 -234 -214 -399 -208
-128 5 -221 44 -307 131 -251 251 -136 679 208 768 74 19 199 13 268 -13z"/>
</g>
</svg>
